<svg width="4557" height="5194" viewBox="0 0 4557 5194" fill="none" xmlns="http://www.w3.org/2000/svg">
<path d="M2229.17 2934.2C2340 2870.22 2476.55 2870.22 2587.38 2934.2L3071.42 3213.67C3191.42 3282.95 3260.7 3415.23 3249.31 3553.33L3232.15 3761.45L2997.27 3639.86C2888.94 3583.78 2759.52 3586.69 2653.81 3647.57L2182.33 3919.13C2077.68 3979.41 2010.44 4088.36 2003.5 4208.93L1986.96 4496.08L4495.58 3047.72L4495.59 3833.6C4495.59 3961.58 4427.31 4079.83 4316.48 4143.82L2581.23 5145.67C2470.41 5209.65 2333.87 5209.66 2223.04 5145.68L1349.81 4641.59C1238.97 4577.6 1170.69 4459.34 1170.69 4331.36V3752.13C1170.69 3624.15 1238.97 3505.9 1349.8 3441.91L2229.17 2934.2Z" fill="#161B27"/>
<path d="M1052.34 687.516C1163.17 623.519 1299.72 623.514 1410.56 687.505L1912.19 977.121C2023.02 1041.11 2091.29 1159.36 2091.29 1287.34V2302.75C2091.29 2430.73 2023.02 2548.98 1912.19 2612.97L1428.14 2892.43C1308.14 2961.71 1158.94 2955.57 1045.04 2876.66L873.389 2757.73L1096.13 2615.11C1198.86 2549.34 1261.05 2435.8 1261.18 2313.82L1261.74 1769.72C1261.87 1648.95 1201.13 1536.25 1100.18 1469.95L859.776 1312.05V4208.77L179.184 3815.83C68.3534 3751.84 0.0792271 3633.59 0.0791016 3505.61V1501.91C0.0791843 1373.94 68.3452 1255.7 179.165 1191.71L1052.34 687.516Z" fill="#161B27"/>
<path d="M2284.33 48.3236C2395.16 -15.6647 2531.71 -15.6652 2642.54 48.3226L4377.8 1050.17C4488.62 1114.16 4556.89 1232.4 4556.9 1360.37L4556.96 2368.65C4556.96 2496.63 4488.69 2614.9 4377.85 2678.89L3876.22 2968.51C3765.39 3032.49 3628.85 3032.49 3518.02 2968.51L2638.64 2460.8C2527.81 2396.81 2459.54 2278.56 2459.54 2150.58L2459.54 1591.65C2459.54 1453.09 2539.46 1326.95 2664.75 1267.77L2853.57 1178.57L2865.71 1442.78C2871.31 1564.63 2938.54 1675.26 3044.12 1736.37L3515.03 2008.9C3619.56 2069.39 3747.53 2073.14 3855.42 2018.87L4112.37 1889.62L1603.75 441.266L2284.33 48.3236Z" fill="#161B27"/>
</svg>
